<svg xmlns="http://www.w3.org/2000/svg" viewBox="0 0 512 512">
  <rect width="512" height="512" rx="96" fill="#16a34a"/>
  <path d="M200 400C200 400 180 350 180 280C180 200 220 140 280 100C280 100 260 160 260 220C260 280 300 340 340 380C380 420 400 430 400 430C400 430 350 440 300 440C250 440 200 400 200 400Z" fill="white"/>
  <path d="M260 220C260 220 240 210 230 190C220 170 230 150 250 140C270 130 290 135 300 150C310 165 300 185 280 200C260 215 260 220 260 220Z" fill="white" opacity="0.9"/>
  <path d="M180 280C180 280 160 300 140 310C120 320 100 310 95 290C90 270 100 250 120 245C140 240 160 255 170 270C175 278 180 280 180 280Z" fill="white" opacity="0.8"/>
</svg>
